<?xml version="1.0" encoding="UTF-8" standalone="no"?>
<!DOCTYPE svg PUBLIC "-//W3C//DTD SVG 1.1//EN"
 "http://www.w3.org/Graphics/SVG/1.1/DTD/svg11.dtd">
<!-- Generated by graphviz version 2.38.0 (20140413.2041)
 -->
<!-- Title: Tree Pages: 1 -->
<svg width="1027pt" height="477pt"
 viewBox="0.00 0.00 1027.00 477.00" xmlns="http://www.w3.org/2000/svg" xmlns:xlink="http://www.w3.org/1999/xlink">
<g id="graph0" class="graph" transform="scale(1 1) rotate(0) translate(4 473)">
<title>Tree</title>
<polygon fill="white" stroke="none" points="-4,4 -4,-473 1023,-473 1023,4 -4,4"/>
<!-- 0 -->
<g id="node1" class="node"><title>0</title>
<polygon fill="#399de5" fill-opacity="0.403922" stroke="black" points="632,-469 487,-469 487,-401 632,-401 632,-469"/>
<text text-anchor="middle" x="559.5" y="-453.8" font-family="Times,serif" font-size="14.00">worst radius &lt;= 16.795</text>
<text text-anchor="middle" x="559.5" y="-438.8" font-family="Times,serif" font-size="14.00">samples = 426</text>
<text text-anchor="middle" x="559.5" y="-423.8" font-family="Times,serif" font-size="14.00">value = [159, 267]</text>
<text text-anchor="middle" x="559.5" y="-408.8" font-family="Times,serif" font-size="14.00">class = benign</text>
</g>
<!-- 1 -->
<g id="node2" class="node"><title>1</title>
<polygon fill="#399de5" fill-opacity="0.901961" stroke="black" points="559,-365 366,-365 366,-297 559,-297 559,-365"/>
<text text-anchor="middle" x="462.5" y="-349.8" font-family="Times,serif" font-size="14.00">worst concave points &lt;= 0.1359</text>
<text text-anchor="middle" x="462.5" y="-334.8" font-family="Times,serif" font-size="14.00">samples = 284</text>
<text text-anchor="middle" x="462.5" y="-319.8" font-family="Times,serif" font-size="14.00">value = [25, 259]</text>
<text text-anchor="middle" x="462.5" y="-304.8" font-family="Times,serif" font-size="14.00">class = benign</text>
</g>
<!-- 0&#45;&gt;1 -->
<g id="edge1" class="edge"><title>0&#45;&gt;1</title>
<path fill="none" stroke="black" d="M528.007,-400.884C519.451,-391.887 510.088,-382.041 501.184,-372.678"/>
<polygon fill="black" stroke="black" points="503.595,-370.134 494.167,-365.299 498.522,-374.958 503.595,-370.134"/>
<text text-anchor="middle" x="493.539" y="-386.591" font-family="Times,serif" font-size="14.00">True</text>
</g>
<!-- 14 -->
<g id="node15" class="node"><title>14</title>
<polygon fill="#e58139" fill-opacity="0.941176" stroke="black" points="730.5,-365 584.5,-365 584.5,-297 730.5,-297 730.5,-365"/>
<text text-anchor="middle" x="657.5" y="-349.8" font-family="Times,serif" font-size="14.00">texture error &lt;= 0.4732</text>
<text text-anchor="middle" x="657.5" y="-334.8" font-family="Times,serif" font-size="14.00">samples = 142</text>
<text text-anchor="middle" x="657.5" y="-319.8" font-family="Times,serif" font-size="14.00">value = [134, 8]</text>
<text text-anchor="middle" x="657.5" y="-304.8" font-family="Times,serif" font-size="14.00">class = malignant</text>
</g>
<!-- 0&#45;&gt;14 -->
<g id="edge14" class="edge"><title>0&#45;&gt;14</title>
<path fill="none" stroke="black" d="M591.318,-400.884C599.961,-391.887 609.422,-382.041 618.417,-372.678"/>
<polygon fill="black" stroke="black" points="621.102,-374.935 625.506,-365.299 616.054,-370.086 621.102,-374.935"/>
<text text-anchor="middle" x="626.006" y="-386.594" font-family="Times,serif" font-size="14.00">False</text>
</g>
<!-- 2 -->
<g id="node3" class="node"><title>2</title>
<polygon fill="#399de5" fill-opacity="0.984314" stroke="black" points="355,-261 214,-261 214,-193 355,-193 355,-261"/>
<text text-anchor="middle" x="284.5" y="-245.8" font-family="Times,serif" font-size="14.00">radius error &lt;= 1.0475</text>
<text text-anchor="middle" x="284.5" y="-230.8" font-family="Times,serif" font-size="14.00">samples = 252</text>
<text text-anchor="middle" x="284.5" y="-215.8" font-family="Times,serif" font-size="14.00">value = [4, 248]</text>
<text text-anchor="middle" x="284.5" y="-200.8" font-family="Times,serif" font-size="14.00">class = benign</text>
</g>
<!-- 1&#45;&gt;2 -->
<g id="edge2" class="edge"><title>1&#45;&gt;2</title>
<path fill="none" stroke="black" d="M404.709,-296.884C387.679,-287.125 368.904,-276.366 351.355,-266.31"/>
<polygon fill="black" stroke="black" points="352.723,-263.06 342.306,-261.125 349.242,-269.133 352.723,-263.06"/>
</g>
<!-- 7 -->
<g id="node8" class="node"><title>7</title>
<polygon fill="#e58139" fill-opacity="0.474510" stroke="black" points="534,-261 391,-261 391,-193 534,-193 534,-261"/>
<text text-anchor="middle" x="462.5" y="-245.8" font-family="Times,serif" font-size="14.00">worst texture &lt;= 25.62</text>
<text text-anchor="middle" x="462.5" y="-230.8" font-family="Times,serif" font-size="14.00">samples = 32</text>
<text text-anchor="middle" x="462.5" y="-215.8" font-family="Times,serif" font-size="14.00">value = [21, 11]</text>
<text text-anchor="middle" x="462.5" y="-200.8" font-family="Times,serif" font-size="14.00">class = malignant</text>
</g>
<!-- 1&#45;&gt;7 -->
<g id="edge7" class="edge"><title>1&#45;&gt;7</title>
<path fill="none" stroke="black" d="M462.5,-296.884C462.5,-288.778 462.5,-279.982 462.5,-271.472"/>
<polygon fill="black" stroke="black" points="466,-271.299 462.5,-261.299 459,-271.299 466,-271.299"/>
</g>
<!-- 3 -->
<g id="node4" class="node"><title>3</title>
<polygon fill="#399de5" fill-opacity="0.988235" stroke="black" points="209.5,-157 37.5,-157 37.5,-89 209.5,-89 209.5,-157"/>
<text text-anchor="middle" x="123.5" y="-141.8" font-family="Times,serif" font-size="14.00">smoothness error &lt;= 0.0033</text>
<text text-anchor="middle" x="123.5" y="-126.8" font-family="Times,serif" font-size="14.00">samples = 251</text>
<text text-anchor="middle" x="123.5" y="-111.8" font-family="Times,serif" font-size="14.00">value = [3, 248]</text>
<text text-anchor="middle" x="123.5" y="-96.8" font-family="Times,serif" font-size="14.00">class = benign</text>
</g>
<!-- 2&#45;&gt;3 -->
<g id="edge3" class="edge"><title>2&#45;&gt;3</title>
<path fill="none" stroke="black" d="M232.228,-192.884C216.966,-183.214 200.154,-172.563 184.407,-162.587"/>
<polygon fill="black" stroke="black" points="186.106,-159.52 175.785,-157.125 182.359,-165.433 186.106,-159.52"/>
</g>
<!-- 6 -->
<g id="node7" class="node"><title>6</title>
<polygon fill="#e58139" stroke="black" points="341,-149.5 228,-149.5 228,-96.5 341,-96.5 341,-149.5"/>
<text text-anchor="middle" x="284.5" y="-134.3" font-family="Times,serif" font-size="14.00">samples = 1</text>
<text text-anchor="middle" x="284.5" y="-119.3" font-family="Times,serif" font-size="14.00">value = [1, 0]</text>
<text text-anchor="middle" x="284.5" y="-104.3" font-family="Times,serif" font-size="14.00">class = malignant</text>
</g>
<!-- 2&#45;&gt;6 -->
<g id="edge6" class="edge"><title>2&#45;&gt;6</title>
<path fill="none" stroke="black" d="M284.5,-192.884C284.5,-182.326 284.5,-170.597 284.5,-159.854"/>
<polygon fill="black" stroke="black" points="288,-159.52 284.5,-149.52 281,-159.52 288,-159.52"/>
</g>
<!-- 4 -->
<g id="node5" class="node"><title>4</title>
<polygon fill="#399de5" fill-opacity="0.666667" stroke="black" points="95,-53 0,-53 0,-0 95,-0 95,-53"/>
<text text-anchor="middle" x="47.5" y="-37.8" font-family="Times,serif" font-size="14.00">samples = 4</text>
<text text-anchor="middle" x="47.5" y="-22.8" font-family="Times,serif" font-size="14.00">value = [1, 3]</text>
<text text-anchor="middle" x="47.5" y="-7.8" font-family="Times,serif" font-size="14.00">class = benign</text>
</g>
<!-- 3&#45;&gt;4 -->
<g id="edge4" class="edge"><title>3&#45;&gt;4</title>
<path fill="none" stroke="black" d="M96.9189,-88.9485C89.7089,-79.9834 81.8943,-70.2666 74.6532,-61.2629"/>
<polygon fill="black" stroke="black" points="77.1928,-58.8358 68.1983,-53.2367 71.738,-63.2228 77.1928,-58.8358"/>
</g>
<!-- 5 -->
<g id="node6" class="node"><title>5</title>
<polygon fill="#399de5" fill-opacity="0.992157" stroke="black" points="218,-53 113,-53 113,-0 218,-0 218,-53"/>
<text text-anchor="middle" x="165.5" y="-37.8" font-family="Times,serif" font-size="14.00">samples = 247</text>
<text text-anchor="middle" x="165.5" y="-22.8" font-family="Times,serif" font-size="14.00">value = [2, 245]</text>
<text text-anchor="middle" x="165.5" y="-7.8" font-family="Times,serif" font-size="14.00">class = benign</text>
</g>
<!-- 3&#45;&gt;5 -->
<g id="edge5" class="edge"><title>3&#45;&gt;5</title>
<path fill="none" stroke="black" d="M138.19,-88.9485C141.971,-80.4408 146.053,-71.2562 149.879,-62.6464"/>
<polygon fill="black" stroke="black" points="153.198,-63.7963 154.061,-53.2367 146.802,-60.9533 153.198,-63.7963"/>
</g>
<!-- 8 -->
<g id="node9" class="node"><title>8</title>
<polygon fill="#399de5" fill-opacity="0.666667" stroke="black" points="535.5,-157 359.5,-157 359.5,-89 535.5,-89 535.5,-157"/>
<text text-anchor="middle" x="447.5" y="-141.8" font-family="Times,serif" font-size="14.00">worst smoothness &lt;= 0.1786</text>
<text text-anchor="middle" x="447.5" y="-126.8" font-family="Times,serif" font-size="14.00">samples = 12</text>
<text text-anchor="middle" x="447.5" y="-111.8" font-family="Times,serif" font-size="14.00">value = [3, 9]</text>
<text text-anchor="middle" x="447.5" y="-96.8" font-family="Times,serif" font-size="14.00">class = benign</text>
</g>
<!-- 7&#45;&gt;8 -->
<g id="edge8" class="edge"><title>7&#45;&gt;8</title>
<path fill="none" stroke="black" d="M457.63,-192.884C456.438,-184.778 455.144,-175.982 453.893,-167.472"/>
<polygon fill="black" stroke="black" points="457.315,-166.684 452.397,-157.299 450.389,-167.702 457.315,-166.684"/>
</g>
<!-- 11 -->
<g id="node12" class="node"><title>11</title>
<polygon fill="#e58139" fill-opacity="0.890196" stroke="black" points="720,-157 553,-157 553,-89 720,-89 720,-157"/>
<text text-anchor="middle" x="636.5" y="-141.8" font-family="Times,serif" font-size="14.00">worst symmetry &lt;= 0.2682</text>
<text text-anchor="middle" x="636.5" y="-126.8" font-family="Times,serif" font-size="14.00">samples = 20</text>
<text text-anchor="middle" x="636.5" y="-111.8" font-family="Times,serif" font-size="14.00">value = [18, 2]</text>
<text text-anchor="middle" x="636.5" y="-96.8" font-family="Times,serif" font-size="14.00">class = malignant</text>
</g>
<!-- 7&#45;&gt;11 -->
<g id="edge11" class="edge"><title>7&#45;&gt;11</title>
<path fill="none" stroke="black" d="M518.993,-192.884C535.64,-183.125 553.993,-172.366 571.147,-162.31"/>
<polygon fill="black" stroke="black" points="573.136,-165.201 579.993,-157.125 569.596,-159.163 573.136,-165.201"/>
</g>
<!-- 9 -->
<g id="node10" class="node"><title>9</title>
<polygon fill="#399de5" fill-opacity="0.890196" stroke="black" points="373,-53 278,-53 278,-0 373,-0 373,-53"/>
<text text-anchor="middle" x="325.5" y="-37.8" font-family="Times,serif" font-size="14.00">samples = 10</text>
<text text-anchor="middle" x="325.5" y="-22.8" font-family="Times,serif" font-size="14.00">value = [1, 9]</text>
<text text-anchor="middle" x="325.5" y="-7.8" font-family="Times,serif" font-size="14.00">class = benign</text>
</g>
<!-- 8&#45;&gt;9 -->
<g id="edge9" class="edge"><title>8&#45;&gt;9</title>
<path fill="none" stroke="black" d="M404.83,-88.9485C392.548,-79.4346 379.172,-69.074 366.964,-59.6175"/>
<polygon fill="black" stroke="black" points="368.775,-56.5934 358.726,-53.2367 364.489,-62.1274 368.775,-56.5934"/>
</g>
<!-- 10 -->
<g id="node11" class="node"><title>10</title>
<polygon fill="#e58139" stroke="black" points="504,-53 391,-53 391,-0 504,-0 504,-53"/>
<text text-anchor="middle" x="447.5" y="-37.8" font-family="Times,serif" font-size="14.00">samples = 2</text>
<text text-anchor="middle" x="447.5" y="-22.8" font-family="Times,serif" font-size="14.00">value = [2, 0]</text>
<text text-anchor="middle" x="447.5" y="-7.8" font-family="Times,serif" font-size="14.00">class = malignant</text>
</g>
<!-- 8&#45;&gt;10 -->
<g id="edge10" class="edge"><title>8&#45;&gt;10</title>
<path fill="none" stroke="black" d="M447.5,-88.9485C447.5,-80.7153 447.5,-71.848 447.5,-63.4814"/>
<polygon fill="black" stroke="black" points="451,-63.2367 447.5,-53.2367 444,-63.2367 451,-63.2367"/>
</g>
<!-- 12 -->
<g id="node13" class="node"><title>12</title>
<polygon fill="#399de5" fill-opacity="0.498039" stroke="black" points="617,-53 522,-53 522,-0 617,-0 617,-53"/>
<text text-anchor="middle" x="569.5" y="-37.8" font-family="Times,serif" font-size="14.00">samples = 3</text>
<text text-anchor="middle" x="569.5" y="-22.8" font-family="Times,serif" font-size="14.00">value = [1, 2]</text>
<text text-anchor="middle" x="569.5" y="-7.8" font-family="Times,serif" font-size="14.00">class = benign</text>
</g>
<!-- 11&#45;&gt;12 -->
<g id="edge12" class="edge"><title>11&#45;&gt;12</title>
<path fill="none" stroke="black" d="M613.067,-88.9485C606.775,-80.0749 599.962,-70.4648 593.633,-61.5388"/>
<polygon fill="black" stroke="black" points="596.386,-59.3701 587.747,-53.2367 590.676,-63.4188 596.386,-59.3701"/>
</g>
<!-- 13 -->
<g id="node14" class="node"><title>13</title>
<polygon fill="#e58139" stroke="black" points="748,-53 635,-53 635,-0 748,-0 748,-53"/>
<text text-anchor="middle" x="691.5" y="-37.8" font-family="Times,serif" font-size="14.00">samples = 17</text>
<text text-anchor="middle" x="691.5" y="-22.8" font-family="Times,serif" font-size="14.00">value = [17, 0]</text>
<text text-anchor="middle" x="691.5" y="-7.8" font-family="Times,serif" font-size="14.00">class = malignant</text>
</g>
<!-- 11&#45;&gt;13 -->
<g id="edge13" class="edge"><title>11&#45;&gt;13</title>
<path fill="none" stroke="black" d="M655.736,-88.9485C660.794,-80.2579 666.264,-70.8608 671.367,-62.0917"/>
<polygon fill="black" stroke="black" points="674.516,-63.6401 676.521,-53.2367 668.466,-60.1189 674.516,-63.6401"/>
</g>
<!-- 15 -->
<g id="node16" class="node"><title>15</title>
<polygon fill="#399de5" stroke="black" points="705,-253.5 610,-253.5 610,-200.5 705,-200.5 705,-253.5"/>
<text text-anchor="middle" x="657.5" y="-238.3" font-family="Times,serif" font-size="14.00">samples = 5</text>
<text text-anchor="middle" x="657.5" y="-223.3" font-family="Times,serif" font-size="14.00">value = [0, 5]</text>
<text text-anchor="middle" x="657.5" y="-208.3" font-family="Times,serif" font-size="14.00">class = benign</text>
</g>
<!-- 14&#45;&gt;15 -->
<g id="edge15" class="edge"><title>14&#45;&gt;15</title>
<path fill="none" stroke="black" d="M657.5,-296.884C657.5,-286.326 657.5,-274.597 657.5,-263.854"/>
<polygon fill="black" stroke="black" points="661,-263.52 657.5,-253.52 654,-263.52 661,-263.52"/>
</g>
<!-- 16 -->
<g id="node17" class="node"><title>16</title>
<polygon fill="#e58139" fill-opacity="0.976471" stroke="black" points="895.5,-261 731.5,-261 731.5,-193 895.5,-193 895.5,-261"/>
<text text-anchor="middle" x="813.5" y="-245.8" font-family="Times,serif" font-size="14.00">worst concavity &lt;= 0.1907</text>
<text text-anchor="middle" x="813.5" y="-230.8" font-family="Times,serif" font-size="14.00">samples = 137</text>
<text text-anchor="middle" x="813.5" y="-215.8" font-family="Times,serif" font-size="14.00">value = [134, 3]</text>
<text text-anchor="middle" x="813.5" y="-200.8" font-family="Times,serif" font-size="14.00">class = malignant</text>
</g>
<!-- 14&#45;&gt;16 -->
<g id="edge16" class="edge"><title>14&#45;&gt;16</title>
<path fill="none" stroke="black" d="M708.149,-296.884C722.8,-287.304 738.925,-276.761 754.06,-266.864"/>
<polygon fill="black" stroke="black" points="756.384,-269.527 762.839,-261.125 752.554,-263.668 756.384,-269.527"/>
</g>
<!-- 17 -->
<g id="node18" class="node"><title>17</title>
<polygon fill="#399de5" fill-opacity="0.333333" stroke="black" points="888,-157 739,-157 739,-89 888,-89 888,-157"/>
<text text-anchor="middle" x="813.5" y="-141.8" font-family="Times,serif" font-size="14.00">worst texture &lt;= 30.975</text>
<text text-anchor="middle" x="813.5" y="-126.8" font-family="Times,serif" font-size="14.00">samples = 5</text>
<text text-anchor="middle" x="813.5" y="-111.8" font-family="Times,serif" font-size="14.00">value = [2, 3]</text>
<text text-anchor="middle" x="813.5" y="-96.8" font-family="Times,serif" font-size="14.00">class = benign</text>
</g>
<!-- 16&#45;&gt;17 -->
<g id="edge17" class="edge"><title>16&#45;&gt;17</title>
<path fill="none" stroke="black" d="M813.5,-192.884C813.5,-184.778 813.5,-175.982 813.5,-167.472"/>
<polygon fill="black" stroke="black" points="817,-167.299 813.5,-157.299 810,-167.299 817,-167.299"/>
</g>
<!-- 20 -->
<g id="node21" class="node"><title>20</title>
<polygon fill="#e58139" stroke="black" points="1019,-149.5 906,-149.5 906,-96.5 1019,-96.5 1019,-149.5"/>
<text text-anchor="middle" x="962.5" y="-134.3" font-family="Times,serif" font-size="14.00">samples = 132</text>
<text text-anchor="middle" x="962.5" y="-119.3" font-family="Times,serif" font-size="14.00">value = [132, 0]</text>
<text text-anchor="middle" x="962.5" y="-104.3" font-family="Times,serif" font-size="14.00">class = malignant</text>
</g>
<!-- 16&#45;&gt;20 -->
<g id="edge20" class="edge"><title>16&#45;&gt;20</title>
<path fill="none" stroke="black" d="M861.876,-192.884C879.548,-180.786 899.466,-167.151 916.889,-155.224"/>
<polygon fill="black" stroke="black" points="918.946,-158.057 925.221,-149.52 914.992,-152.281 918.946,-158.057"/>
</g>
<!-- 18 -->
<g id="node19" class="node"><title>18</title>
<polygon fill="#399de5" stroke="black" points="861,-53 766,-53 766,-0 861,-0 861,-53"/>
<text text-anchor="middle" x="813.5" y="-37.8" font-family="Times,serif" font-size="14.00">samples = 3</text>
<text text-anchor="middle" x="813.5" y="-22.8" font-family="Times,serif" font-size="14.00">value = [0, 3]</text>
<text text-anchor="middle" x="813.5" y="-7.8" font-family="Times,serif" font-size="14.00">class = benign</text>
</g>
<!-- 17&#45;&gt;18 -->
<g id="edge18" class="edge"><title>17&#45;&gt;18</title>
<path fill="none" stroke="black" d="M813.5,-88.9485C813.5,-80.7153 813.5,-71.848 813.5,-63.4814"/>
<polygon fill="black" stroke="black" points="817,-63.2367 813.5,-53.2367 810,-63.2367 817,-63.2367"/>
</g>
<!-- 19 -->
<g id="node20" class="node"><title>19</title>
<polygon fill="#e58139" stroke="black" points="992,-53 879,-53 879,-0 992,-0 992,-53"/>
<text text-anchor="middle" x="935.5" y="-37.8" font-family="Times,serif" font-size="14.00">samples = 2</text>
<text text-anchor="middle" x="935.5" y="-22.8" font-family="Times,serif" font-size="14.00">value = [2, 0]</text>
<text text-anchor="middle" x="935.5" y="-7.8" font-family="Times,serif" font-size="14.00">class = malignant</text>
</g>
<!-- 17&#45;&gt;19 -->
<g id="edge19" class="edge"><title>17&#45;&gt;19</title>
<path fill="none" stroke="black" d="M856.17,-88.9485C868.452,-79.4346 881.828,-69.074 894.036,-59.6175"/>
<polygon fill="black" stroke="black" points="896.511,-62.1274 902.274,-53.2367 892.225,-56.5934 896.511,-62.1274"/>
</g>
</g>
</svg>
