<?xml version="1.0" encoding="UTF-8" standalone="no"?>
<!DOCTYPE svg PUBLIC "-//W3C//DTD SVG 1.1//EN"
 "http://www.w3.org/Graphics/SVG/1.1/DTD/svg11.dtd">
<!-- Generated by graphviz version 2.38.0 (20140413.2041)
 -->
<!-- Title: %3 Pages: 1 -->
<svg width="252pt" height="261pt"
 viewBox="0.00 0.00 252.00 261.00" xmlns="http://www.w3.org/2000/svg" xmlns:xlink="http://www.w3.org/1999/xlink">
<g id="graph0" class="graph" transform="scale(1 1) rotate(0) translate(4 257)">
<title>%3</title>
<polygon fill="white" stroke="none" points="-4,4 -4,-257 248,-257 248,4 -4,4"/>
<g id="clust1" class="cluster"><title>cluster_0</title>
<polygon fill="none" stroke="white" points="8,-8 8,-245 60,-245 60,-8 8,-8"/>
<text text-anchor="middle" x="34" y="-229.8" font-family="Times,serif" font-size="14.00">inputs</text>
</g>
<g id="clust2" class="cluster"><title>cluster_1</title>
<polygon fill="none" stroke="white" points="80,-35 80,-218 164,-218 164,-35 80,-35"/>
<text text-anchor="middle" x="122" y="-202.8" font-family="Times,serif" font-size="14.00">hidden layer</text>
</g>
<g id="clust3" class="cluster"><title>cluster_2</title>
<polygon fill="none" stroke="white" points="184,-89 184,-164 236,-164 236,-89 184,-89"/>
<text text-anchor="middle" x="210" y="-148.8" font-family="Times,serif" font-size="14.00">output</text>
</g>
<!-- x[0] -->
<g id="node1" class="node"><title>x[0]</title>
<ellipse fill="none" stroke="black" cx="34" cy="-196" rx="18" ry="18"/>
<text text-anchor="middle" x="34" y="-192.3" font-family="Times,serif" font-size="14.00">x[0]</text>
</g>
<!-- h0 -->
<g id="node5" class="node"><title>h0</title>
<ellipse fill="none" stroke="black" cx="122" cy="-61" rx="18" ry="18"/>
<text text-anchor="middle" x="122" y="-57.3" font-family="Times,serif" font-size="14.00">h[0]</text>
</g>
<!-- x[0]&#45;&gt;h0 -->
<g id="edge1" class="edge"><title>x[0]&#45;&gt;h0</title>
<path fill="none" stroke="black" d="M44.5321,-181.037C59.3841,-157.723 88.1768,-112.525 105.882,-84.7317"/>
<polygon fill="black" stroke="black" points="109.004,-86.3447 111.425,-76.0302 103.1,-82.5838 109.004,-86.3447"/>
</g>
<!-- h1 -->
<g id="node6" class="node"><title>h1</title>
<ellipse fill="none" stroke="black" cx="122" cy="-169" rx="18" ry="18"/>
<text text-anchor="middle" x="122" y="-165.3" font-family="Times,serif" font-size="14.00">h[1]</text>
</g>
<!-- x[0]&#45;&gt;h1 -->
<g id="edge2" class="edge"><title>x[0]&#45;&gt;h1</title>
<path fill="none" stroke="black" d="M51.5817,-190.794C63.836,-186.947 80.7639,-181.632 94.8355,-177.214"/>
<polygon fill="black" stroke="black" points="95.9768,-180.525 104.469,-174.19 93.88,-173.846 95.9768,-180.525"/>
</g>
<!-- h2 -->
<g id="node7" class="node"><title>h2</title>
<ellipse fill="none" stroke="black" cx="122" cy="-115" rx="18" ry="18"/>
<text text-anchor="middle" x="122" y="-111.3" font-family="Times,serif" font-size="14.00">h[2]</text>
</g>
<!-- x[0]&#45;&gt;h2 -->
<g id="edge3" class="edge"><title>x[0]&#45;&gt;h2</title>
<path fill="none" stroke="black" d="M47.6896,-184.048C61.6628,-170.887 84.3244,-149.543 100.757,-134.066"/>
<polygon fill="black" stroke="black" points="103.379,-136.405 108.258,-127.001 98.5791,-131.309 103.379,-136.405"/>
</g>
<!-- x[1] -->
<g id="node2" class="node"><title>x[1]</title>
<ellipse fill="none" stroke="black" cx="34" cy="-142" rx="18" ry="18"/>
<text text-anchor="middle" x="34" y="-138.3" font-family="Times,serif" font-size="14.00">x[1]</text>
</g>
<!-- x[1]&#45;&gt;h0 -->
<g id="edge4" class="edge"><title>x[1]&#45;&gt;h0</title>
<path fill="none" stroke="black" d="M47.6896,-130.048C61.6628,-116.887 84.3244,-95.5433 100.757,-80.066"/>
<polygon fill="black" stroke="black" points="103.379,-82.405 108.258,-73.0009 98.5791,-77.3093 103.379,-82.405"/>
</g>
<!-- x[1]&#45;&gt;h1 -->
<g id="edge5" class="edge"><title>x[1]&#45;&gt;h1</title>
<path fill="none" stroke="black" d="M51.5817,-147.206C63.836,-151.053 80.7639,-156.368 94.8355,-160.786"/>
<polygon fill="black" stroke="black" points="93.88,-164.154 104.469,-163.81 95.9768,-157.475 93.88,-164.154"/>
</g>
<!-- x[1]&#45;&gt;h2 -->
<g id="edge6" class="edge"><title>x[1]&#45;&gt;h2</title>
<path fill="none" stroke="black" d="M51.5817,-136.794C63.836,-132.947 80.7639,-127.632 94.8355,-123.214"/>
<polygon fill="black" stroke="black" points="95.9768,-126.525 104.469,-120.19 93.88,-119.846 95.9768,-126.525"/>
</g>
<!-- x[2] -->
<g id="node3" class="node"><title>x[2]</title>
<ellipse fill="none" stroke="black" cx="34" cy="-88" rx="18" ry="18"/>
<text text-anchor="middle" x="34" y="-84.3" font-family="Times,serif" font-size="14.00">x[2]</text>
</g>
<!-- x[2]&#45;&gt;h0 -->
<g id="edge7" class="edge"><title>x[2]&#45;&gt;h0</title>
<path fill="none" stroke="black" d="M51.5817,-82.7941C63.836,-78.9468 80.7639,-73.6323 94.8355,-69.2144"/>
<polygon fill="black" stroke="black" points="95.9768,-72.5246 104.469,-66.1899 93.88,-65.846 95.9768,-72.5246"/>
</g>
<!-- x[2]&#45;&gt;h1 -->
<g id="edge8" class="edge"><title>x[2]&#45;&gt;h1</title>
<path fill="none" stroke="black" d="M47.6896,-99.9518C61.6628,-113.113 84.3244,-134.457 100.757,-149.934"/>
<polygon fill="black" stroke="black" points="98.5791,-152.691 108.258,-156.999 103.379,-147.595 98.5791,-152.691"/>
</g>
<!-- x[2]&#45;&gt;h2 -->
<g id="edge9" class="edge"><title>x[2]&#45;&gt;h2</title>
<path fill="none" stroke="black" d="M51.5817,-93.2059C63.836,-97.0532 80.7639,-102.368 94.8355,-106.786"/>
<polygon fill="black" stroke="black" points="93.88,-110.154 104.469,-109.81 95.9768,-103.475 93.88,-110.154"/>
</g>
<!-- x[3] -->
<g id="node4" class="node"><title>x[3]</title>
<ellipse fill="none" stroke="black" cx="34" cy="-34" rx="18" ry="18"/>
<text text-anchor="middle" x="34" y="-30.3" font-family="Times,serif" font-size="14.00">x[3]</text>
</g>
<!-- x[3]&#45;&gt;h0 -->
<g id="edge10" class="edge"><title>x[3]&#45;&gt;h0</title>
<path fill="none" stroke="black" d="M51.5817,-39.2059C63.836,-43.0532 80.7639,-48.3677 94.8355,-52.7856"/>
<polygon fill="black" stroke="black" points="93.88,-56.154 104.469,-55.8101 95.9768,-49.4754 93.88,-56.154"/>
</g>
<!-- x[3]&#45;&gt;h1 -->
<g id="edge11" class="edge"><title>x[3]&#45;&gt;h1</title>
<path fill="none" stroke="black" d="M44.5321,-48.9632C59.3841,-72.2774 88.1768,-117.475 105.882,-145.268"/>
<polygon fill="black" stroke="black" points="103.1,-147.416 111.425,-153.97 109.004,-143.655 103.1,-147.416"/>
</g>
<!-- x[3]&#45;&gt;h2 -->
<g id="edge12" class="edge"><title>x[3]&#45;&gt;h2</title>
<path fill="none" stroke="black" d="M47.6896,-45.9518C61.6628,-59.1126 84.3244,-80.4567 100.757,-95.934"/>
<polygon fill="black" stroke="black" points="98.5791,-98.6907 108.258,-102.999 103.379,-93.595 98.5791,-98.6907"/>
</g>
<!-- y -->
<g id="node8" class="node"><title>y</title>
<ellipse fill="none" stroke="black" cx="210" cy="-115" rx="18" ry="18"/>
<text text-anchor="middle" x="210" y="-111.3" font-family="Times,serif" font-size="14.00">y</text>
</g>
<!-- h0&#45;&gt;y -->
<g id="edge13" class="edge"><title>h0&#45;&gt;y</title>
<path fill="none" stroke="black" d="M137.589,-70.1604C150.685,-78.3836 170.145,-90.6029 185.445,-100.21"/>
<polygon fill="black" stroke="black" points="184.01,-103.441 194.34,-105.795 187.732,-97.5129 184.01,-103.441"/>
</g>
<!-- h1&#45;&gt;y -->
<g id="edge14" class="edge"><title>h1&#45;&gt;y</title>
<path fill="none" stroke="black" d="M137.589,-159.84C150.685,-151.616 170.145,-139.397 185.445,-129.79"/>
<polygon fill="black" stroke="black" points="187.732,-132.487 194.34,-124.205 184.01,-126.559 187.732,-132.487"/>
</g>
<!-- h2&#45;&gt;y -->
<g id="edge15" class="edge"><title>h2&#45;&gt;y</title>
<path fill="none" stroke="black" d="M140.403,-115C152.254,-115 168.183,-115 181.708,-115"/>
<polygon fill="black" stroke="black" points="181.916,-118.5 191.916,-115 181.916,-111.5 181.916,-118.5"/>
</g>
</g>
</svg>
