<?xml version="1.0" encoding="UTF-8" standalone="no"?>
<!DOCTYPE svg PUBLIC "-//W3C//DTD SVG 1.1//EN"
 "http://www.w3.org/Graphics/SVG/1.1/DTD/svg11.dtd">
<!-- Generated by graphviz version 2.38.0 (20140413.2041)
 -->
<!-- Title: Tree Pages: 1 -->
<svg width="284pt" height="224pt"
 viewBox="0.00 0.00 284.00 224.00" xmlns="http://www.w3.org/2000/svg" xmlns:xlink="http://www.w3.org/1999/xlink">
<g id="graph0" class="graph" transform="scale(1 1) rotate(0) translate(4 220)">
<title>Tree</title>
<polygon fill="white" stroke="none" points="-4,4 -4,-220 280,-220 280,4 -4,4"/>
<!-- 0 -->
<g id="node1" class="node"><title>0</title>
<polygon fill="none" stroke="black" points="163,-216 55,-216 55,-163 163,-163 163,-216"/>
<text text-anchor="middle" x="109" y="-200.8" font-family="Times,serif" font-size="14.00">X[1] &lt;= &#45;5.8141</text>
<text text-anchor="middle" x="109" y="-185.8" font-family="Times,serif" font-size="14.00">samples = 100</text>
<text text-anchor="middle" x="109" y="-170.8" font-family="Times,serif" font-size="14.00">value = [50, 50]</text>
</g>
<!-- 1 -->
<g id="node2" class="node"><title>1</title>
<polygon fill="#e58139" stroke="black" points="98,-119.5 0,-119.5 0,-81.5 98,-81.5 98,-119.5"/>
<text text-anchor="middle" x="49" y="-104.3" font-family="Times,serif" font-size="14.00">samples = 25</text>
<text text-anchor="middle" x="49" y="-89.3" font-family="Times,serif" font-size="14.00">value = [25, 0]</text>
</g>
<!-- 0&#45;&gt;1 -->
<g id="edge1" class="edge"><title>0&#45;&gt;1</title>
<path fill="none" stroke="black" d="M91.3225,-162.868C83.7399,-151.873 74.8859,-139.035 67.2419,-127.951"/>
<polygon fill="black" stroke="black" points="69.977,-125.752 61.4184,-119.507 64.2145,-129.726 69.977,-125.752"/>
<text text-anchor="middle" x="56.9021" y="-140.395" font-family="Times,serif" font-size="14.00">True</text>
</g>
<!-- 2 -->
<g id="node3" class="node"><title>2</title>
<polygon fill="#399de5" fill-opacity="0.498039" stroke="black" points="221.5,-127 116.5,-127 116.5,-74 221.5,-74 221.5,-127"/>
<text text-anchor="middle" x="169" y="-111.8" font-family="Times,serif" font-size="14.00">X[1] &lt;= 5.3475</text>
<text text-anchor="middle" x="169" y="-96.8" font-family="Times,serif" font-size="14.00">samples = 75</text>
<text text-anchor="middle" x="169" y="-81.8" font-family="Times,serif" font-size="14.00">value = [25, 50]</text>
</g>
<!-- 0&#45;&gt;2 -->
<g id="edge2" class="edge"><title>0&#45;&gt;2</title>
<path fill="none" stroke="black" d="M126.677,-162.868C132.545,-154.359 139.174,-144.747 145.415,-135.698"/>
<polygon fill="black" stroke="black" points="148.445,-137.469 151.242,-127.25 142.683,-133.495 148.445,-137.469"/>
<text text-anchor="middle" x="155.758" y="-148.138" font-family="Times,serif" font-size="14.00">False</text>
</g>
<!-- 3 -->
<g id="node4" class="node"><title>3</title>
<polygon fill="#399de5" stroke="black" points="160,-38 62,-38 62,-0 160,-0 160,-38"/>
<text text-anchor="middle" x="111" y="-22.8" font-family="Times,serif" font-size="14.00">samples = 50</text>
<text text-anchor="middle" x="111" y="-7.8" font-family="Times,serif" font-size="14.00">value = [0, 50]</text>
</g>
<!-- 2&#45;&gt;3 -->
<g id="edge3" class="edge"><title>2&#45;&gt;3</title>
<path fill="none" stroke="black" d="M150.329,-73.9081C143.905,-65.1022 136.702,-55.2299 130.234,-46.3636"/>
<polygon fill="black" stroke="black" points="133.028,-44.2546 124.306,-38.2389 127.373,-48.3803 133.028,-44.2546"/>
</g>
<!-- 4 -->
<g id="node5" class="node"><title>4</title>
<polygon fill="#e58139" stroke="black" points="276,-38 178,-38 178,-0 276,-0 276,-38"/>
<text text-anchor="middle" x="227" y="-22.8" font-family="Times,serif" font-size="14.00">samples = 25</text>
<text text-anchor="middle" x="227" y="-7.8" font-family="Times,serif" font-size="14.00">value = [25, 0]</text>
</g>
<!-- 2&#45;&gt;4 -->
<g id="edge4" class="edge"><title>2&#45;&gt;4</title>
<path fill="none" stroke="black" d="M187.671,-73.9081C194.095,-65.1022 201.298,-55.2299 207.766,-46.3636"/>
<polygon fill="black" stroke="black" points="210.627,-48.3803 213.694,-38.2389 204.972,-44.2546 210.627,-48.3803"/>
</g>
</g>
</svg>
