<?xml version="1.0" encoding="UTF-8" standalone="no"?>
<!DOCTYPE svg PUBLIC "-//W3C//DTD SVG 1.1//EN"
 "http://www.w3.org/Graphics/SVG/1.1/DTD/svg11.dtd">
<!-- Generated by graphviz version 2.38.0 (20140413.2041)
 -->
<!-- Title: %3 Pages: 1 -->
<svg width="378pt" height="261pt"
 viewBox="0.00 0.00 378.00 261.00" xmlns="http://www.w3.org/2000/svg" xmlns:xlink="http://www.w3.org/1999/xlink">
<g id="graph0" class="graph" transform="scale(1 1) rotate(0) translate(4 257)">
<title>%3</title>
<polygon fill="white" stroke="none" points="-4,4 -4,-257 374,-257 374,4 -4,4"/>
<g id="clust1" class="cluster"><title>cluster_0</title>
<polygon fill="none" stroke="white" points="8,-8 8,-245 60,-245 60,-8 8,-8"/>
<text text-anchor="middle" x="34" y="-229.8" font-family="Times,serif" font-size="14.00">inputs</text>
</g>
<g id="clust2" class="cluster"><title>cluster_1</title>
<polygon fill="none" stroke="white" points="80,-35 80,-218 175,-218 175,-35 80,-35"/>
<text text-anchor="middle" x="127.5" y="-202.8" font-family="Times,serif" font-size="14.00">hidden layer 1</text>
</g>
<g id="clust3" class="cluster"><title>cluster_2</title>
<polygon fill="none" stroke="white" points="195,-35 195,-218 290,-218 290,-35 195,-35"/>
<text text-anchor="middle" x="242.5" y="-202.8" font-family="Times,serif" font-size="14.00">hidden layer 2</text>
</g>
<g id="clust4" class="cluster"><title>cluster_3</title>
<polygon fill="none" stroke="white" points="310,-89 310,-164 362,-164 362,-89 310,-89"/>
<text text-anchor="middle" x="336" y="-148.8" font-family="Times,serif" font-size="14.00">output</text>
</g>
<!-- x[0] -->
<g id="node1" class="node"><title>x[0]</title>
<ellipse fill="none" stroke="black" cx="34" cy="-196" rx="18" ry="18"/>
<text text-anchor="middle" x="34" y="-192.3" font-family="Times,serif" font-size="14.00">x[0]</text>
</g>
<!-- h1[0] -->
<g id="node5" class="node"><title>h1[0]</title>
<ellipse fill="none" stroke="black" cx="127" cy="-61" rx="18" ry="18"/>
<text text-anchor="middle" x="127" y="-57.3" font-family="Times,serif" font-size="14.00">h1[0]</text>
</g>
<!-- x[0]&#45;&gt;h1[0] -->
<g id="edge1" class="edge"><title>x[0]&#45;&gt;h1[0]</title>
<path fill="none" stroke="black" d="M44.7386,-181.553C60.4603,-158.229 91.5706,-112.077 110.406,-84.1334"/>
<polygon fill="black" stroke="black" points="113.368,-86.0011 116.056,-75.7527 107.564,-82.0885 113.368,-86.0011"/>
</g>
<!-- h1[1] -->
<g id="node6" class="node"><title>h1[1]</title>
<ellipse fill="none" stroke="black" cx="127" cy="-169" rx="18" ry="18"/>
<text text-anchor="middle" x="127" y="-165.3" font-family="Times,serif" font-size="14.00">h1[1]</text>
</g>
<!-- x[0]&#45;&gt;h1[1] -->
<g id="edge2" class="edge"><title>x[0]&#45;&gt;h1[1]</title>
<path fill="none" stroke="black" d="M51.6908,-191.048C65.0315,-187.09 83.9854,-181.466 99.4114,-176.889"/>
<polygon fill="black" stroke="black" points="100.824,-180.121 109.415,-173.921 98.8325,-173.41 100.824,-180.121"/>
</g>
<!-- h1[2] -->
<g id="node7" class="node"><title>h1[2]</title>
<ellipse fill="none" stroke="black" cx="127" cy="-115" rx="18" ry="18"/>
<text text-anchor="middle" x="127" y="-111.3" font-family="Times,serif" font-size="14.00">h1[2]</text>
</g>
<!-- x[0]&#45;&gt;h1[2] -->
<g id="edge3" class="edge"><title>x[0]&#45;&gt;h1[2]</title>
<path fill="none" stroke="black" d="M48.0381,-184.395C63.0396,-171.042 87.8647,-148.945 105.468,-133.276"/>
<polygon fill="black" stroke="black" points="107.844,-135.847 112.986,-126.584 103.189,-130.618 107.844,-135.847"/>
</g>
<!-- x[1] -->
<g id="node2" class="node"><title>x[1]</title>
<ellipse fill="none" stroke="black" cx="34" cy="-142" rx="18" ry="18"/>
<text text-anchor="middle" x="34" y="-138.3" font-family="Times,serif" font-size="14.00">x[1]</text>
</g>
<!-- x[1]&#45;&gt;h1[0] -->
<g id="edge4" class="edge"><title>x[1]&#45;&gt;h1[0]</title>
<path fill="none" stroke="black" d="M48.0381,-130.395C63.0396,-117.042 87.8647,-94.9446 105.468,-79.276"/>
<polygon fill="black" stroke="black" points="107.844,-81.8469 112.986,-72.5838 103.189,-76.6182 107.844,-81.8469"/>
</g>
<!-- x[1]&#45;&gt;h1[1] -->
<g id="edge5" class="edge"><title>x[1]&#45;&gt;h1[1]</title>
<path fill="none" stroke="black" d="M51.6908,-146.952C65.0315,-150.91 83.9854,-156.534 99.4114,-161.111"/>
<polygon fill="black" stroke="black" points="98.8325,-164.59 109.415,-164.079 100.824,-157.879 98.8325,-164.59"/>
</g>
<!-- x[1]&#45;&gt;h1[2] -->
<g id="edge6" class="edge"><title>x[1]&#45;&gt;h1[2]</title>
<path fill="none" stroke="black" d="M51.6908,-137.048C65.0315,-133.09 83.9854,-127.466 99.4114,-122.889"/>
<polygon fill="black" stroke="black" points="100.824,-126.121 109.415,-119.921 98.8325,-119.41 100.824,-126.121"/>
</g>
<!-- x[2] -->
<g id="node3" class="node"><title>x[2]</title>
<ellipse fill="none" stroke="black" cx="34" cy="-88" rx="18" ry="18"/>
<text text-anchor="middle" x="34" y="-84.3" font-family="Times,serif" font-size="14.00">x[2]</text>
</g>
<!-- x[2]&#45;&gt;h1[0] -->
<g id="edge7" class="edge"><title>x[2]&#45;&gt;h1[0]</title>
<path fill="none" stroke="black" d="M51.6908,-83.0478C65.0315,-79.0896 83.9854,-73.4659 99.4114,-68.8889"/>
<polygon fill="black" stroke="black" points="100.824,-72.1208 109.415,-65.9208 98.8325,-65.4099 100.824,-72.1208"/>
</g>
<!-- x[2]&#45;&gt;h1[1] -->
<g id="edge8" class="edge"><title>x[2]&#45;&gt;h1[1]</title>
<path fill="none" stroke="black" d="M48.0381,-99.6053C63.0396,-112.958 87.8647,-135.055 105.468,-150.724"/>
<polygon fill="black" stroke="black" points="103.189,-153.382 112.986,-157.416 107.844,-148.153 103.189,-153.382"/>
</g>
<!-- x[2]&#45;&gt;h1[2] -->
<g id="edge9" class="edge"><title>x[2]&#45;&gt;h1[2]</title>
<path fill="none" stroke="black" d="M51.6908,-92.9522C65.0315,-96.9104 83.9854,-102.534 99.4114,-107.111"/>
<polygon fill="black" stroke="black" points="98.8325,-110.59 109.415,-110.079 100.824,-103.879 98.8325,-110.59"/>
</g>
<!-- x[3] -->
<g id="node4" class="node"><title>x[3]</title>
<ellipse fill="none" stroke="black" cx="34" cy="-34" rx="18" ry="18"/>
<text text-anchor="middle" x="34" y="-30.3" font-family="Times,serif" font-size="14.00">x[3]</text>
</g>
<!-- x[3]&#45;&gt;h1[0] -->
<g id="edge10" class="edge"><title>x[3]&#45;&gt;h1[0]</title>
<path fill="none" stroke="black" d="M51.6908,-38.9522C65.0315,-42.9104 83.9854,-48.5341 99.4114,-53.1111"/>
<polygon fill="black" stroke="black" points="98.8325,-56.5901 109.415,-56.0792 100.824,-49.8792 98.8325,-56.5901"/>
</g>
<!-- x[3]&#45;&gt;h1[1] -->
<g id="edge11" class="edge"><title>x[3]&#45;&gt;h1[1]</title>
<path fill="none" stroke="black" d="M44.7386,-48.4474C60.4603,-71.7708 91.5706,-117.923 110.406,-145.867"/>
<polygon fill="black" stroke="black" points="107.564,-147.912 116.056,-154.247 113.368,-143.999 107.564,-147.912"/>
</g>
<!-- x[3]&#45;&gt;h1[2] -->
<g id="edge12" class="edge"><title>x[3]&#45;&gt;h1[2]</title>
<path fill="none" stroke="black" d="M48.0381,-45.6053C63.0396,-58.9584 87.8647,-81.0554 105.468,-96.724"/>
<polygon fill="black" stroke="black" points="103.189,-99.3818 112.986,-103.416 107.844,-94.1531 103.189,-99.3818"/>
</g>
<!-- h2[0] -->
<g id="node8" class="node"><title>h2[0]</title>
<ellipse fill="none" stroke="black" cx="242" cy="-61" rx="18" ry="18"/>
<text text-anchor="middle" x="242" y="-57.3" font-family="Times,serif" font-size="14.00">h2[0]</text>
</g>
<!-- h1[0]&#45;&gt;h2[0] -->
<g id="edge13" class="edge"><title>h1[0]&#45;&gt;h2[0]</title>
<path fill="none" stroke="black" d="M145.162,-61C163.331,-61 192.275,-61 213.606,-61"/>
<polygon fill="black" stroke="black" points="213.676,-64.5001 223.676,-61 213.676,-57.5001 213.676,-64.5001"/>
</g>
<!-- h2[1] -->
<g id="node9" class="node"><title>h2[1]</title>
<ellipse fill="none" stroke="black" cx="242" cy="-169" rx="18" ry="18"/>
<text text-anchor="middle" x="242" y="-165.3" font-family="Times,serif" font-size="14.00">h2[1]</text>
</g>
<!-- h1[0]&#45;&gt;h2[1] -->
<g id="edge14" class="edge"><title>h1[0]&#45;&gt;h2[1]</title>
<path fill="none" stroke="black" d="M140.525,-72.9705C160.04,-91.6219 197.872,-127.78 221.136,-150.015"/>
<polygon fill="black" stroke="black" points="218.772,-152.597 228.419,-156.976 223.608,-147.536 218.772,-152.597"/>
</g>
<!-- h2[2] -->
<g id="node10" class="node"><title>h2[2]</title>
<ellipse fill="none" stroke="black" cx="242" cy="-115" rx="18" ry="18"/>
<text text-anchor="middle" x="242" y="-111.3" font-family="Times,serif" font-size="14.00">h2[2]</text>
</g>
<!-- h1[0]&#45;&gt;h2[2] -->
<g id="edge15" class="edge"><title>h1[0]&#45;&gt;h2[2]</title>
<path fill="none" stroke="black" d="M143.712,-68.5085C162.518,-77.4954 194.233,-92.6514 216.321,-103.207"/>
<polygon fill="black" stroke="black" points="214.889,-106.401 225.421,-107.555 217.908,-100.086 214.889,-106.401"/>
</g>
<!-- h1[1]&#45;&gt;h2[0] -->
<g id="edge16" class="edge"><title>h1[1]&#45;&gt;h2[0]</title>
<path fill="none" stroke="black" d="M140.525,-157.029C160.04,-138.378 197.872,-102.22 221.136,-79.9854"/>
<polygon fill="black" stroke="black" points="223.608,-82.4637 228.419,-73.0242 218.772,-77.4033 223.608,-82.4637"/>
</g>
<!-- h1[1]&#45;&gt;h2[1] -->
<g id="edge17" class="edge"><title>h1[1]&#45;&gt;h2[1]</title>
<path fill="none" stroke="black" d="M145.162,-169C163.331,-169 192.275,-169 213.606,-169"/>
<polygon fill="black" stroke="black" points="213.676,-172.5 223.676,-169 213.676,-165.5 213.676,-172.5"/>
</g>
<!-- h1[1]&#45;&gt;h2[2] -->
<g id="edge18" class="edge"><title>h1[1]&#45;&gt;h2[2]</title>
<path fill="none" stroke="black" d="M143.712,-161.492C162.518,-152.505 194.233,-137.349 216.321,-126.793"/>
<polygon fill="black" stroke="black" points="217.908,-129.914 225.421,-122.445 214.889,-123.599 217.908,-129.914"/>
</g>
<!-- h1[2]&#45;&gt;h2[0] -->
<g id="edge19" class="edge"><title>h1[2]&#45;&gt;h2[0]</title>
<path fill="none" stroke="black" d="M143.712,-107.492C162.518,-98.5046 194.233,-83.3486 216.321,-72.7935"/>
<polygon fill="black" stroke="black" points="217.908,-75.9144 225.421,-68.4447 214.889,-69.5985 217.908,-75.9144"/>
</g>
<!-- h1[2]&#45;&gt;h2[1] -->
<g id="edge20" class="edge"><title>h1[2]&#45;&gt;h2[1]</title>
<path fill="none" stroke="black" d="M143.712,-122.508C162.518,-131.495 194.233,-146.651 216.321,-157.207"/>
<polygon fill="black" stroke="black" points="214.889,-160.401 225.421,-161.555 217.908,-154.086 214.889,-160.401"/>
</g>
<!-- h1[2]&#45;&gt;h2[2] -->
<g id="edge21" class="edge"><title>h1[2]&#45;&gt;h2[2]</title>
<path fill="none" stroke="black" d="M145.162,-115C163.331,-115 192.275,-115 213.606,-115"/>
<polygon fill="black" stroke="black" points="213.676,-118.5 223.676,-115 213.676,-111.5 213.676,-118.5"/>
</g>
<!-- y -->
<g id="node11" class="node"><title>y</title>
<ellipse fill="none" stroke="black" cx="336" cy="-115" rx="18" ry="18"/>
<text text-anchor="middle" x="336" y="-111.3" font-family="Times,serif" font-size="14.00">y</text>
</g>
<!-- h2[0]&#45;&gt;y -->
<g id="edge22" class="edge"><title>h2[0]&#45;&gt;y</title>
<path fill="none" stroke="black" d="M257.781,-69.676C272.181,-78.1282 294.309,-91.1164 311.192,-101.026"/>
<polygon fill="black" stroke="black" points="309.554,-104.123 319.95,-106.166 313.097,-98.0856 309.554,-104.123"/>
</g>
<!-- h2[1]&#45;&gt;y -->
<g id="edge23" class="edge"><title>h2[1]&#45;&gt;y</title>
<path fill="none" stroke="black" d="M257.781,-160.324C272.181,-151.872 294.309,-138.884 311.192,-128.974"/>
<polygon fill="black" stroke="black" points="313.097,-131.914 319.95,-123.834 309.554,-125.877 313.097,-131.914"/>
</g>
<!-- h2[2]&#45;&gt;y -->
<g id="edge24" class="edge"><title>h2[2]&#45;&gt;y</title>
<path fill="none" stroke="black" d="M260.304,-115C273.54,-115 292.053,-115 307.337,-115"/>
<polygon fill="black" stroke="black" points="307.773,-118.5 317.773,-115 307.773,-111.5 307.773,-118.5"/>
</g>
</g>
</svg>
