<?xml version="1.0" encoding="UTF-8" standalone="no"?>
<!DOCTYPE svg PUBLIC "-//W3C//DTD SVG 1.1//EN"
 "http://www.w3.org/Graphics/SVG/1.1/DTD/svg11.dtd">
<!-- Generated by graphviz version 2.40.1 (20161225.0304)
 -->
<!-- Title: %3 Pages: 1 -->
<svg width="300pt" height="218pt"
 viewBox="0.00 0.00 300.00 218.00" xmlns="http://www.w3.org/2000/svg" xmlns:xlink="http://www.w3.org/1999/xlink">
<g id="graph0" class="graph" transform="scale(1 1) rotate(0) translate(4 214)">
<title>%3</title>
<polygon fill="#ffffff" stroke="transparent" points="-4,4 -4,-214 296,-214 296,4 -4,4"/>
<!-- 0 -->
<g id="node1" class="node">
<title>0</title>
<polygon fill="none" stroke="#000000" points="192.5,-210 97.5,-210 97.5,-174 192.5,-174 192.5,-210"/>
<text text-anchor="middle" x="145" y="-188.3" font-family="Times,serif" font-size="14.00" fill="#000000">Has feathers?</text>
</g>
<!-- 1 -->
<g id="node2" class="node">
<title>1</title>
<polygon fill="none" stroke="#000000" points="135.5,-123 70.5,-123 70.5,-87 135.5,-87 135.5,-123"/>
<text text-anchor="middle" x="103" y="-101.3" font-family="Times,serif" font-size="14.00" fill="#000000">Can fly?</text>
</g>
<!-- 0&#45;&gt;1 -->
<g id="edge1" class="edge">
<title>0&#45;&gt;1</title>
<path fill="none" stroke="#000000" d="M136.2976,-173.9735C130.4972,-161.9585 122.7642,-145.9401 116.2105,-132.3646"/>
<polygon fill="#000000" stroke="#000000" points="119.1908,-130.4872 111.6913,-123.0034 112.8869,-133.5305 119.1908,-130.4872"/>
<text text-anchor="middle" x="141" y="-144.8" font-family="Times,serif" font-size="14.00" fill="#000000">True</text>
</g>
<!-- 2 -->
<g id="node3" class="node">
<title>2</title>
<polygon fill="none" stroke="#000000" points="224,-123 154,-123 154,-87 224,-87 224,-123"/>
<text text-anchor="middle" x="189" y="-101.3" font-family="Times,serif" font-size="14.00" fill="#000000">Has fins?</text>
</g>
<!-- 0&#45;&gt;2 -->
<g id="edge2" class="edge">
<title>0&#45;&gt;2</title>
<path fill="none" stroke="#000000" d="M154.1168,-173.9735C160.2524,-161.8418 168.4522,-145.6287 175.3601,-131.9698"/>
<polygon fill="#000000" stroke="#000000" points="178.505,-133.5066 179.8949,-123.0034 172.2584,-130.3474 178.505,-133.5066"/>
<text text-anchor="middle" x="185.5" y="-144.8" font-family="Times,serif" font-size="14.00" fill="#000000">False</text>
</g>
<!-- 3 -->
<g id="node4" class="node">
<title>3</title>
<polygon fill="none" stroke="#000000" points="54,-36 0,-36 0,0 54,0 54,-36"/>
<text text-anchor="middle" x="27" y="-14.3" font-family="Times,serif" font-size="14.00" fill="#000000">Hawk</text>
</g>
<!-- 1&#45;&gt;3 -->
<g id="edge3" class="edge">
<title>1&#45;&gt;3</title>
<path fill="none" stroke="#000000" d="M87.2528,-86.9735C76.3492,-74.4919 61.6716,-57.6899 49.533,-43.7944"/>
<polygon fill="#000000" stroke="#000000" points="51.9419,-41.2319 42.7271,-36.0034 46.6701,-45.8371 51.9419,-41.2319"/>
<text text-anchor="middle" x="84" y="-57.8" font-family="Times,serif" font-size="14.00" fill="#000000">True</text>
</g>
<!-- 4 -->
<g id="node5" class="node">
<title>4</title>
<polygon fill="none" stroke="#000000" points="136,-36 72,-36 72,0 136,0 136,-36"/>
<text text-anchor="middle" x="104" y="-14.3" font-family="Times,serif" font-size="14.00" fill="#000000">Penguin</text>
</g>
<!-- 1&#45;&gt;4 -->
<g id="edge4" class="edge">
<title>1&#45;&gt;4</title>
<path fill="none" stroke="#000000" d="M103.2072,-86.9735C103.3426,-75.1918 103.5223,-59.5607 103.6763,-46.1581"/>
<polygon fill="#000000" stroke="#000000" points="107.1778,-46.043 103.7931,-36.0034 100.1783,-45.9624 107.1778,-46.043"/>
<text text-anchor="middle" x="119.5" y="-57.8" font-family="Times,serif" font-size="14.00" fill="#000000">False</text>
</g>
<!-- 5 -->
<g id="node6" class="node">
<title>5</title>
<polygon fill="none" stroke="#000000" points="219.5,-36 156.5,-36 156.5,0 219.5,0 219.5,-36"/>
<text text-anchor="middle" x="188" y="-14.3" font-family="Times,serif" font-size="14.00" fill="#000000">Dolphin</text>
</g>
<!-- 2&#45;&gt;5 -->
<g id="edge5" class="edge">
<title>2&#45;&gt;5</title>
<path fill="none" stroke="#000000" d="M188.7928,-86.9735C188.6574,-75.1918 188.4777,-59.5607 188.3237,-46.1581"/>
<polygon fill="#000000" stroke="#000000" points="191.8217,-45.9624 188.2069,-36.0034 184.8222,-46.043 191.8217,-45.9624"/>
<text text-anchor="middle" x="203" y="-57.8" font-family="Times,serif" font-size="14.00" fill="#000000">True</text>
</g>
<!-- 6 -->
<g id="node7" class="node">
<title>6</title>
<polygon fill="none" stroke="#000000" points="292,-36 238,-36 238,0 292,0 292,-36"/>
<text text-anchor="middle" x="265" y="-14.3" font-family="Times,serif" font-size="14.00" fill="#000000">Bear</text>
</g>
<!-- 2&#45;&gt;6 -->
<g id="edge6" class="edge">
<title>2&#45;&gt;6</title>
<path fill="none" stroke="#000000" d="M205.3318,-86.7322C210.3733,-81.0648 215.9316,-74.7877 221,-69 228.0493,-60.9504 235.6805,-52.1397 242.577,-44.1403"/>
<polygon fill="#000000" stroke="#000000" points="245.3086,-46.3319 249.1799,-36.4697 240.0034,-41.7652 245.3086,-46.3319"/>
<text text-anchor="middle" x="248.5" y="-57.8" font-family="Times,serif" font-size="14.00" fill="#000000">False</text>
</g>
</g>
</svg>
